<?xml version="1.0" encoding="UTF-8" standalone="no"?>
<!-- Created with Inkscape (http://www.inkscape.org/) -->

<svg
   width="6"
   height="6"
   viewBox="0 0 6.0000004 6"
   version="1.1"
   id="svg1"
   inkscape:version="1.3 (0e150ed6c4, 2023-07-21)"
   sodipodi:docname="logo"
   xmlns:inkscape="http://www.inkscape.org/namespaces/inkscape"
   xmlns:sodipodi="http://sodipodi.sourceforge.net/DTD/sodipodi-0.dtd"
   xmlns="http://www.w3.org/2000/svg"
   xmlns:svg="http://www.w3.org/2000/svg">
  <sodipodi:namedview
     id="namedview1"
     pagecolor="#ffffff"
     bordercolor="#111111"
     borderopacity="1"
     inkscape:showpageshadow="0"
     inkscape:pageopacity="0"
     inkscape:pagecheckerboard="1"
     inkscape:deskcolor="#d1d1d1"
     inkscape:document-units="px"
     showgrid="true"
     inkscape:zoom="64"
     inkscape:cx="4.5234375"
     inkscape:cy="3.53125"
     inkscape:window-width="1366"
     inkscape:window-height="700"
     inkscape:window-x="0"
     inkscape:window-y="0"
     inkscape:window-maximized="1"
     inkscape:current-layer="layer1">
    <inkscape:grid
       id="grid1"
       units="px"
       originx="0"
       originy="0"
       spacingx="1.0000001"
       spacingy="1"
       empcolor="#0099e5"
       empopacity="0.30196078"
       color="#0099e5"
       opacity="0.14901961"
       empspacing="5"
       dotted="false"
       gridanglex="30"
       gridanglez="30"
       visible="true" />
  </sodipodi:namedview>
  <defs
     id="defs1" />
  <g
     inkscape:label="Layer 1"
     inkscape:groupmode="layer"
     id="layer1">
    <path
       id="rect1"
       style="fill:#ffffff;stroke-width:2;stroke-miterlimit:5"
       d="M 2 0 L 0 2 L 1 2 L 2 1 L 2 0 z M 2 1 L 2 2 L 3 1 L 4 2 L 4 1 L 3 0 L 2 1 z M 4 1 L 5 2 L 6 2 L 4 0 L 4 1 z M 5 2 L 4 2 L 5 3 L 4 4 L 5 4 L 6 3 L 5 2 z M 5 4 L 4 5 L 4 6 L 6 4 L 5 4 z M 4 5 L 4 4 L 3 5 L 2 4 L 2 5 L 3 6 L 4 5 z M 2 5 L 1 4 L 0 4 L 2 6 L 2 5 z M 1 4 L 2 4 L 1 3 L 2 2 L 1 2 L 0 3 L 1 4 z M 2 2 L 2 4 L 4 4 L 4 2 L 2 2 z " />
  </g>
</svg>
